<?xml version="1.0" standalone="no"?><!-- Generator: Gravit.io --><svg xmlns="http://www.w3.org/2000/svg" xmlns:xlink="http://www.w3.org/1999/xlink" style="isolation:isolate" viewBox="575.138 510.604 187.862 46.396" width="187.862" height="46.396"><defs><clipPath id="_clipPath_4JopKBog32veGTUPRr5jL2w0vrqXliXF"><rect x="575.138" y="510.604" width="187.862" height="46.396"/></clipPath></defs><g clip-path="url(#_clipPath_4JopKBog32veGTUPRr5jL2w0vrqXliXF)"><g><path d=" M 592.458 547.073 L 585.122 547.073 L 575.138 520.87 L 582.614 520.87 L 587.677 535.799 L 587.677 535.799 Q 588.521 538.635 588.732 541.166 L 588.732 541.166 L 588.872 541.166 L 588.872 541.166 Q 588.989 538.916 589.927 535.799 L 589.927 535.799 L 594.966 520.87 L 602.443 520.87 L 592.458 547.073 L 592.458 547.073 Z " fill="rgb(217,83,79)"/><path d=" M 613.341 520.87 L 613.341 547.073 L 606.193 547.073 L 606.193 520.87 L 613.341 520.87 L 613.341 520.87 Z " fill="rgb(217,83,79)"/><path d=" M 624.989 510.604 L 624.989 547.073 L 617.841 547.073 L 617.841 510.604 L 624.989 510.604 L 624.989 510.604 Z " fill="rgb(217,83,79)"/><path d=" M 636.638 510.604 L 636.638 547.073 L 629.489 547.073 L 629.489 510.604 L 636.638 510.604 L 636.638 510.604 Z " fill="rgb(217,83,79)"/><path d=" M 662.771 547.073 L 657.779 547.073 L 656.396 543.51 L 656.208 543.51 L 656.208 543.51 Q 654.404 545.784 652.493 546.663 L 652.493 546.663 L 652.493 546.663 Q 650.583 547.541 647.513 547.541 L 647.513 547.541 L 647.513 547.541 Q 643.739 547.541 641.572 545.385 L 641.572 545.385 L 641.572 545.385 Q 639.404 543.229 639.404 539.245 L 639.404 539.245 L 639.404 539.245 Q 639.404 535.073 642.322 533.092 L 642.322 533.092 L 642.322 533.092 Q 645.239 531.112 651.122 530.901 L 651.122 530.901 L 655.669 530.76 L 655.669 529.612 L 655.669 529.612 Q 655.669 525.627 651.591 525.627 L 651.591 525.627 L 651.591 525.627 Q 648.45 525.627 644.208 527.526 L 644.208 527.526 L 641.841 522.698 L 641.841 522.698 Q 646.364 520.331 651.872 520.331 L 651.872 520.331 L 651.872 520.331 Q 657.146 520.331 659.958 522.627 L 659.958 522.627 L 659.958 522.627 Q 662.771 524.924 662.771 529.612 L 662.771 529.612 L 662.771 547.073 L 662.771 547.073 Z  M 655.669 537.088 L 655.669 534.932 L 652.904 535.026 L 652.904 535.026 Q 649.786 535.12 648.263 536.151 L 648.263 536.151 L 648.263 536.151 Q 646.739 537.182 646.739 539.291 L 646.739 539.291 L 646.739 539.291 Q 646.739 542.315 650.208 542.315 L 650.208 542.315 L 650.208 542.315 Q 652.693 542.315 654.181 540.885 L 654.181 540.885 L 654.181 540.885 Q 655.669 539.456 655.669 537.088 L 655.669 537.088 L 655.669 537.088 Z " fill-rule="evenodd" fill="rgb(217,83,79)"/><path d=" M 668.504 516.152 C 667.833 515.546 666.661 514.558 667.33 513.956 Q 667.999 513.353 667.33 513.956 L 667.33 513.956 Q 675.111 510.464 675.111 513.956 L 675.111 513.956 L 675.111 513.956 L 674.138 516.546 L 674.138 516.546 Q 673.598 517.84 671.22 517.471 Q 668.786 517.527 671.22 517.471 L 671.22 517.471 Q 669.455 517.011 668.504 516.152 Z " fill="rgb(217,83,79)"/><path d=" M 607.567 516.152 C 606.896 515.546 605.723 514.558 606.392 513.956 Q 607.061 513.353 606.392 513.956 L 606.392 513.956 Q 614.173 510.464 614.173 513.956 L 614.173 513.956 L 614.173 513.956 L 613.201 516.546 L 613.201 516.546 Q 612.661 517.84 610.283 517.471 Q 607.848 517.527 610.283 517.471 L 610.283 517.471 Q 608.517 517.011 607.567 516.152 Z " fill="rgb(217,83,79)"/><path d=" M 674.279 520.87 L 674.279 547.073 L 667.13 547.073 L 667.13 520.87 L 674.279 520.87 L 674.279 520.87 Z " fill="rgb(217,83,79)"/><path d=" M 702.966 529.987 L 702.966 547.073 L 695.818 547.073 L 695.818 531.768 L 695.818 531.768 Q 695.818 528.932 694.81 527.514 L 694.81 527.514 L 694.81 527.514 Q 693.802 526.096 691.599 526.096 L 691.599 526.096 L 691.599 526.096 Q 688.599 526.096 687.263 528.1 L 687.263 528.1 L 687.263 528.1 Q 685.927 530.104 685.927 534.745 L 685.927 534.745 L 685.927 547.073 L 678.779 547.073 L 678.779 520.87 L 684.239 520.87 L 685.2 524.221 L 685.599 524.221 L 685.599 524.221 Q 686.794 522.323 688.892 521.35 L 688.892 521.35 L 688.892 521.35 Q 690.989 520.377 693.661 520.377 L 693.661 520.377 L 693.661 520.377 Q 698.232 520.377 700.599 522.85 L 700.599 522.85 L 700.599 522.85 Q 702.966 525.323 702.966 529.987 L 702.966 529.987 L 702.966 529.987 Z " fill="rgb(217,83,79)"/><path d=" M 735 528 C 734.795 532.95 733 540.781 730 542.573 C 726.921 544.411 730.615 551.926 726 552 C 724.062 552.031 724.993 546 722 546 C 719.007 546 719.778 552.006 718 552 C 714.715 551.988 720.41 543.691 712.312 547.073 C 711.258 547.513 712.17 549.251 712 550.42 C 711.763 552.052 713.031 554.567 711 555 C 709.118 555.401 709.091 552.324 709 551 C 708.826 548.457 707.915 548.508 707.888 547.073 Q 707.812 543.059 707.888 512.807 L 718.646 512.807 L 718.646 512.807 Q 727.036 512.807 731.677 517.237 L 731.677 517.237 L 731.677 517.237 Q 735.307 520.576 735 528 Z  M 728.771 529.799 L 728.771 529.799 L 728.771 529.799 Q 728.771 518.76 719.021 518.76 L 719.021 518.76 L 715.154 518.76 L 715.154 541.073 L 718.271 541.073 L 718.271 541.073 Q 728.771 541.073 728.771 529.799 Z " fill-rule="evenodd" fill="rgb(217,83,79)"/><path d=" M 744.823 518.76 L 744.823 526.377 L 749.041 526.377 L 749.041 526.377 Q 751.995 526.377 753.319 525.463 L 753.319 525.463 L 753.319 525.463 Q 754.643 524.549 754.643 522.44 L 754.643 522.44 L 754.643 522.44 Q 754.643 520.471 753.202 519.616 L 753.202 519.616 L 753.202 519.616 Q 751.76 518.76 748.643 518.76 L 748.643 518.76 L 744.823 518.76 L 744.823 518.76 L 744.823 518.76 Z  M 747.846 551.567 C 747.297 554.925 748.31 557.065 746.581 556.998 C 744.682 556.925 745.324 552.901 744.752 550.055 C 744.307 547.841 742.924 546.399 742.52 547.073 C 741.932 548.052 742.322 548.79 741.907 549.868 C 741.381 551.233 740.596 551.829 739.549 551.655 C 738.652 551.505 737.45 550.247 737.159 548.983 C 736.928 547.984 737.424 547.745 737.557 547.073 Q 739.9 535.186 737.557 512.807 L 748.221 512.807 L 748.221 512.807 Q 755.51 512.807 758.803 514.881 L 758.803 514.881 L 758.803 514.881 Q 762.096 516.956 762.096 521.479 L 762.096 521.479 L 762.096 521.479 Q 762.096 524.549 760.655 526.518 L 760.655 526.518 L 760.655 526.518 Q 759.213 528.487 756.823 528.885 L 756.823 528.885 L 756.823 529.12 L 756.823 529.12 Q 760.081 529.846 761.522 531.838 L 761.522 531.838 L 761.522 531.838 Q 763.233 535.01 762.963 537.135 Q 762.659 539.538 762.963 537.135 L 762.963 537.135 Q 761.491 541.952 759.577 544.448 Q 757.877 546.663 759.577 544.448 L 759.577 544.448 Q 757.086 548.189 754.776 548.452 C 753.119 548.64 752.017 546.508 750.377 547.073 C 748.503 547.718 748.184 549.504 747.846 551.567 L 747.846 551.567 Z  M 749.323 532.143 L 744.823 532.143 L 744.823 541.073 L 749.557 541.073 L 749.557 541.073 Q 752.557 541.073 753.987 539.924 L 753.987 539.924 L 753.987 539.924 Q 755.416 538.776 755.416 536.409 L 755.416 536.409 L 755.416 536.409 Q 755.416 532.143 749.323 532.143 L 749.323 532.143 L 749.323 532.143 Z " fill-rule="evenodd" fill="rgb(217,83,79)"/></g></g></svg>